<svg xmlns="http://www.w3.org/2000/svg" width="24" height="24" viewBox="0 0 24 24"><defs><style>.a{fill:none}.b,.c{fill:#207df8}.b{opacity:.4}</style></defs><path d="M0 0h24v24H0z" class="a"/><path d="M11.5 1A10.5 10.5 0 1 1 1 11.5 10.5 10.5 0 0 1 11.5 1zm0 1.4a9.1 9.1 0 1 0 9.1 9.1 9.1 9.1 0 0 0-9.1-9.1z" class="b"/><path d="M17.1 10.8a.7.7 0 0 1 .7.7 6.307 6.307 0 0 1-3.849 5.806.7.7 0 1 1-.545-1.29A4.91 4.91 0 0 0 16.4 11.5a.7.7 0 0 1 .7-.7zm-11.2 0a.7.7 0 0 1 .7.7 4.909 4.909 0 0 0 2.943 4.494.7.7 0 1 1-.56 1.283A6.308 6.308 0 0 1 5.2 11.5a.7.7 0 0 1 .7-.7zm5.6-.7a1.4 1.4 0 1 1-1.4 1.4 1.4 1.4 0 0 1 1.4-1.4zm0-4.9a6.289 6.289 0 0 1 4.961 2.417.7.7 0 1 1-1.1.864A4.9 4.9 0 0 0 7.878 8.2a.7.7 0 1 1-1.035-.943A6.284 6.284 0 0 1 11.5 5.2z" class="c"/></svg>