<svg xmlns="http://www.w3.org/2000/svg" width="24" height="24" viewBox="0 0 24 24"><defs><style>.a{fill:none}.b,.c{fill:#207df8}.c{opacity:.4}</style></defs><path d="M0 0h24v24H0z" class="a"/><path d="M13.495 8.302h-2.968a2.226 2.226 0 0 0-2.223 2.223v2.967a2.226 2.226 0 0 0 2.223 2.223h2.967a2.226 2.226 0 0 0 2.223-2.223v-2.967a2.225 2.225 0 0 0-2.222-2.223zm.741 5.19a.742.742 0 0 1-.741.741h-2.968a.742.742 0 0 1-.741-.741v-2.967a.742.742 0 0 1 .741-.741h2.967a.742.742 0 0 1 .741.741v2.967z" class="b"/><path d="M21.659 12.744a.746.746 0 0 0 0-1.492h-1.46V8.269h1.46a.746.746 0 0 0 0-1.492h-1.5a3.552 3.552 0 0 0-2.931-2.935v-1.5a.746.746 0 1 0-1.492 0v1.451h-2.988V2.345a.746.746 0 1 0-1.492 0v1.451H8.269V2.345a.746.746 0 0 0-1.492 0v1.5A3.552 3.552 0 0 0 3.843 6.78h-1.5a.746.746 0 1 0 0 1.492h1.453v2.983H2.345a.746.746 0 1 0 0 1.492h1.453v2.988H2.345a.746.746 0 1 0 0 1.492h1.5a3.553 3.553 0 0 0 2.933 2.929v1.5a.746.746 0 1 0 1.492 0v-1.458h2.989v1.461a.746.746 0 0 0 1.492 0v-1.461h2.983v1.461a.746.746 0 1 0 1.492 0v-1.5a3.552 3.552 0 0 0 2.929-2.928h1.5a.746.746 0 0 0 0-1.492h-1.456v-2.995zm-2.948 3.91a2.054 2.054 0 0 1-2.052 2.051H7.342a2.054 2.054 0 0 1-2.052-2.052V7.34a2.054 2.054 0 0 1 2.052-2.052h9.317a2.054 2.054 0 0 1 2.052 2.052v9.314z" class="c"/></svg>