<svg xmlns="http://www.w3.org/2000/svg" width="24" height="24" viewBox="0 0 24 24"><defs><style>.a{fill:none}.b,.c{fill:#94a6c8}.b{opacity:.4}</style></defs><path d="M0 0h24v24H0z" class="a"/><path d="M10.429 12.787H3.347a.787.787 0 0 0-.787.787v7.082a.787.787 0 0 0 .787.787h7.082a.787.787 0 0 0 .787-.787v-7.082a.787.787 0 0 0-.787-.787zm-.472 7.4H3.819v-6.141h6.138zm10.7-7.4H13.57a.787.787 0 0 0-.787.787v7.082a.787.787 0 0 0 .787.787h7.082a.787.787 0 0 0 .787-.787v-7.082a.787.787 0 0 0-.787-.787zm-.472 7.4h-6.143v-6.141h6.138zM10.429 2.558H3.347a.787.787 0 0 0-.787.787v7.082a.787.787 0 0 0 .787.787h7.082a.787.787 0 0 0 .787-.787V3.345a.787.787 0 0 0-.787-.787zm-.472 7.4H3.819V3.817h6.138z" class="b"/><path d="M17.112 2.558a4.328 4.328 0 1 0 4.328 4.328 4.328 4.328 0 0 0-4.328-4.328m0 1.259a3.069 3.069 0 1 1-3.069 3.069 3.073 3.073 0 0 1 3.069-3.069" class="c"/></svg>