<svg xmlns="http://www.w3.org/2000/svg" width="24" height="24" viewBox="0 0 24 24"><defs><style>.a,.d{fill:none}.b,.c{fill:#207df8}.c,.d{opacity:.4}.e,.f{stroke:none}.f{fill:#207df8}</style></defs><path d="M0 0h24v24H0z" class="a"/><path d="M12.2 17.092a.99.99 0 0 1-.4-.084l-9.27-4.041a.981.981 0 0 1-.6-.863.99.99 0 0 1 .5-.921 1.065 1.065 0 0 0 .1.05l9.27 4.042a1 1 0 0 0 .8 0l9.27-4.042a1.068 1.068 0 0 0 .1-.05.99.99 0 0 1 .5.92.981.981 0 0 1-.6.863l-9.27 4.043a.99.99 0 0 1-.4.083z" class="b"/><path d="M12.2 22.092a.99.99 0 0 1-.4-.084l-9.27-4.041a.981.981 0 0 1-.6-.863.99.99 0 0 1 .5-.921 1.065 1.065 0 0 0 .1.05l9.27 4.042a1 1 0 0 0 .8 0l9.27-4.042a1.068 1.068 0 0 0 .1-.05.99.99 0 0 1 .5.92.981.981 0 0 1-.6.863l-9.27 4.043a.99.99 0 0 1-.4.083z" class="c"/><g class="d"><path d="M11.6 2.423a1 1 0 0 1 .8 0l8.992 3.91a1 1 0 0 1 0 1.834l-8.992 3.91a1 1 0 0 1-.8 0l-8.991-3.91a1 1 0 0 1 0-1.834z" class="e"/><path d="M12 3.777L4.011 7.25 12 10.723l7.989-3.473L12 3.777m0-1.437a1 1 0 0 1 .399.083l8.992 3.91c.801.348.801 1.486 0 1.834l-8.992 3.91a1 1 0 0 1-.798 0L2.61 8.167c-.801-.348-.801-1.486 0-1.834l8.992-3.91A1 1 0 0 1 12 2.34z" class="f"/></g></svg>