<svg xmlns="http://www.w3.org/2000/svg" width="24" height="24" viewBox="0 0 24 24"><defs><style>.a,.c{fill:none}.b{fill:#94a6c8}.b,.d{opacity:.4}.c,.d{stroke:#94a6c8;stroke-width:1.4px}.d{fill:#fff}.e{stroke:none}</style></defs><path d="M0 0h24v24H0z" class="a"/><path d="M20 2H4a2.044 2.044 0 0 0-2 2v16a2.044 2.044 0 0 0 2 2h16a2.044 2.044 0 0 0 2-2V4a2.044 2.044 0 0 0-2-2zm.571 17.643a.946.946 0 0 1-.929.929H4.357a.946.946 0 0 1-.929-.929V4.357a.946.946 0 0 1 .929-.929h15.214a.962.962 0 0 1 1 .929z" class="b"/><g class="c" transform="translate(5 6)"><rect width="14" height="6" class="e" rx="1"/><rect width="12.6" height="4.6" x=".7" y=".7" class="a" rx=".3"/></g><g class="d" transform="translate(5 13)"><rect width="14" height="5" class="e" rx="1"/><rect width="12.6" height="3.6" x=".7" y=".7" class="a" rx=".3"/></g></svg>