<svg xmlns="http://www.w3.org/2000/svg" width="24" height="24" viewBox="0 0 24 24"><defs><style>.a{fill:none}.b{opacity:.4}.c{fill:#207df8}</style></defs><path d="M0 0h24v24H0z" class="a"/><g class="b"><path d="M20 5H4a2.044 2.044 0 0 0-2 2v13a2.044 2.044 0 0 0 2 2h16a2.044 2.044 0 0 0 2-2V7a2.044 2.044 0 0 0-2-2zm.571 14.643a.946.946 0 0 1-.929.929H4.357a.946.946 0 0 1-.929-.929V7.357a.946.946 0 0 1 .929-.929h15.214a.962.962 0 0 1 1 .929z" class="c"/><path d="M15 3h1.4v5H15zM7 3h1.4v5H7zM3 9h19v1.4H3z" class="c"/></g><rect width="3" height="3" class="c" rx="1.5" transform="translate(5.5 14)"/><rect width="3" height="3" class="c" rx="1.5" transform="translate(10.5 14)"/><rect width="3" height="3" class="c" rx="1.5" transform="translate(15.5 14)"/></svg>