<svg xmlns="http://www.w3.org/2000/svg" width="24" height="24" viewBox="0 0 24 24"><defs><style>.a{fill:none}.b,.c{fill:#207df8}.b{opacity:.4}</style></defs><path d="M0 0h24v24H0z" class="a"/><g transform="translate(-151.6 -177.2)"><path d="M171.6 179.2h-16a2.044 2.044 0 0 0-2 2v16a2.044 2.044 0 0 0 2 2h16a2.044 2.044 0 0 0 2-2v-16a2.044 2.044 0 0 0-2-2zm.571 17.643a.946.946 0 0 1-.929.929h-15.285a.946.946 0 0 1-.929-.929v-15.286a.946.946 0 0 1 .929-.929h15.214a.962.962 0 0 1 1 .929z" class="b"/><rect width="7" height="1.5" class="c" rx=".75" transform="translate(157.6 185.2)"/><rect width="10" height="1.5" class="c" rx=".75" transform="translate(157.6 190.2)"/></g></svg>