<svg xmlns="http://www.w3.org/2000/svg" width="24" height="24" viewBox="0 0 24 24"><defs><style>.a{fill:none}.b,.c{fill:#207df8}.b{opacity:.4}</style></defs><path d="M0 0h24v24H0z" class="a"/><path d="M14.131 5.689a1.14 1.14 0 1 0 1.141-1.14 1.141 1.141 0 0 0-1.14 1.14z" class="b"/><path d="M18.378 21.231h-5.616V19.57a9.191 9.191 0 1 0-1.561 0v1.665H5.527a.78.78 0 1 0 0 1.56h12.851a.78.78 0 1 0 0-1.561zM6.6 15.808a7.608 7.608 0 1 1 2.428 1.637A7.608 7.608 0 0 1 6.6 15.808z" class="b"/><path d="M16.417 11.71a4.4 4.4 0 1 0-4.4 4.4 4.4 4.4 0 0 0 4.4-4.4zm-7.192 0a2.788 2.788 0 1 1 2.788 2.788 2.788 2.788 0 0 1-2.788-2.788z" class="c"/></svg>