<svg xmlns="http://www.w3.org/2000/svg" width="24" height="24" viewBox="0 0 24 24"><defs><style>.a{fill:none}.b{opacity:.4}.c{fill:#94a6c8}.d{fill:#fff}</style></defs><path d="M0 0h24v24H0z" class="a"/><g class="b"><path d="M20 2H4a2.044 2.044 0 0 0-2 2v16a2.044 2.044 0 0 0 2 2h16a2.044 2.044 0 0 0 2-2V4a2.044 2.044 0 0 0-2-2zm.571 17.643a.946.946 0 0 1-.929.929H4.357a.946.946 0 0 1-.929-.929V4.357a.946.946 0 0 1 .929-.929h15.214a.962.962 0 0 1 1 .929z" class="c"/></g><g transform="translate(-151.6 -176.92)"><path d="M168.943 193.59l-1.554-1.552a5.25 5.25 0 1 0-.674.674l1.554 1.554a.475.475 0 0 0 .337.138.475.475 0 0 0 .336-.812z" class="c"/><circle cx="4.066" cy="4.066" r="4.066" class="d" transform="translate(159.306 184.607)"/></g></svg>